<?xml version="1.0" encoding="UTF-8"?>
<svg id="wordmark" xmlns="http://www.w3.org/2000/svg" viewBox="0 0 4368.31 1080">
  <defs>
    <style>
      .cls-1 {
        fill: #fff;
      }

      .cls-2 {
        fill: #67c18c;
      }
    </style>
  </defs>
  <g>
    <path id="Leaf" class="cls-2" d="M457.35,991.4c2.81-.26,1.3-13.26,7.32-28.6,5.07-12.93,12.8-20.64,23.68-31.35,6.6-6.5,20.75-19.5,45.03-33.35,7.84-4.47,13.02-6.91,57.03-25.68,39.09-16.67,37.74-15.91,43.03-18.34,29.7-13.7,50.99-28.15,67.37-39.02,14.8-9.82,30.03-19.92,47.53-34.52,12.99-10.84,40.46-35.21,66.54-71.04,38.65-53.11,53.76-103.25,62.04-131.58,18.85-64.56,19.39-116.31,19.51-154.09.13-41.91-3.62-140.21-49.53-251.65-7.82-18.97-13.51-30.52-13.51-30.52-6-11.72-10.33-18.24-20.01-36.52-3.7-6.99-6.63-12.77-8.51-16.51-2.8,6.03-7.21,14.61-13.76,24.14-14.12,20.55-29.78,33.33-39.52,40.65-45.18,33.97-128.63,75.18-145.84,83.63,0,0-65.83,32.32-118.41,61.7-2.81,1.57-8.76,4.92-16.34,9.67-4.97,3.12-26.16,16.58-50.03,37.69-14.57,12.89-40.18,35.83-65.37,72.71-29.82,43.66-42.3,82.32-45.03,91.06-3.52,11.26-11.39,38.66-14.01,75.05-1.64,22.84-3.65,83.18,23.68,152.76,13.22,33.65,28.44,57.08,40.02,74.71,23.58,35.88,48.08,62.65,67.04,81.05.02-4.84.21-11.63,1-19.68,2.9-29.63,11.39-51.22,16.01-62.71,17.44-43.41,43.74-73.1,50.7-80.72,6.12-6.7,46.33-49.86,105.06-71.04,13.43-4.84,37.35-11.97,41.94-13.34,25.59-7.63,36.52-9.96,56.03-15.51,15.43-4.39,37.46-11.14,64.04-21.01-5.64,3.61-13.76,8.65-23.76,14.26-7.9,4.43-28.34,15.58-60.29,28.52-28.23,11.43-27.46,8.87-49.78,18.51-23.82,10.29-41.09,20.29-47.78,24.26-16.76,9.96-36.34,21.6-58.04,42.28-6.4,6.1-21.85,21.43-37.52,44.53-7.53,11.09-19.82,29.46-29.52,56.53-3.43,9.56-9.53,28.59-12.26,53.53-3.59,32.83,1.36,57.04,4.5,72.29.52,2.54,5.77,27.63,9.69,27.27Z"/>
    <path id="Cloud" class="cls-1" d="M435.59,690.88c1.63-4.44,2.93-7.81,3.19-8.47,3.51-9,10.07-21.87,11.13-23.84,31.86-59.18,95.48-89.51,95.48-89.51,13.06-6.23,52.02-24.29,100.06-21.18,16.86,1.09,25.11,4.16,50.36,4.84,14.51.39,43.56,1.17,67.71-5.17,44.71-11.74,73.56-48.11,87.89-70.38-1.88-2.06-4.83-4.84-9.01-7.17-3.75-2.09-7.66-3.35-17.18-4.67-6.43-.89-13.73-1.87-24.52-1.83-8.63.03-14.82.05-22.85,1.67-5.97,1.2-14.67,3.63-24.52,9.01-.38-4.76-1.26-11.8-3.5-20.01-13.03-47.69-57.48-80.98-98.56-94.06-46.59-14.83-86.58-2.92-98.23,1,0,0-65.09,21.88-95.14,86.68-2.24,4.83-6.61,14.42-9.09,27.89-4.03,21.87-.56,40.23,2.33,50.86-6.93-1.32-35.74-5.98-62.87,11.67-27.42,17.84-39.98,49.91-37.52,79.22,3.17,37.87,30.76,63.24,54.3,73.88,10.85,4.9,20.8,6.66,27.75,7.33.65-1.87,1.6-4.55,2.78-7.75Z"/>
  </g>
  <g>
    <path class="cls-2" d="M1953.38,188.39c-17.63.93-31.78,3.33-42.44,7.19-10.67,3.87-20.49,10.28-29.46,19.25-6.81,6.49-11.91,13.68-15.31,21.57-3.41,7.89-5.73,17.86-6.96,29.92-2.17,16.08-3.25,35.1-3.25,57.06v341.87c0,31.85,1.86,55.51,5.57,70.97,3.71,15.47,10.36,27.83,19.95,37.11,17,16.39,40.97,25.36,71.9,26.9v10.67h-296.41v-10.67c17.93-.93,32.39-3.48,43.37-7.65,10.97-4.18,20.79-10.59,29.46-19.25,9.58-9.89,16.16-22.5,19.71-37.81,3.55-15.31,5.33-38.73,5.33-70.28V250.55l-238.89,560.35h-9.74l-237.5-552v406.35c0,31.85,1.78,55.36,5.33,70.51,3.55,15.16,10.13,27.68,19.71,37.57,8.65,8.97,18.47,15.47,29.46,19.48,10.97,4.02,25.28,6.49,42.91,7.42v10.67h-213.84v-10.67c17.63-.93,31.93-3.4,42.91-7.42,10.97-4.02,20.79-10.51,29.46-19.48,9.58-9.89,16.16-22.5,19.71-37.81,3.55-15.31,5.33-38.73,5.33-70.28v-341.87c0-14.22-.46-27.67-1.39-40.36-1.55-22.88-5.1-39.58-10.67-50.1-7.73-14.53-18.32-25.28-31.77-32.24-13.45-6.96-31.31-11.05-53.58-12.29v-10.67h201.32l200.85,495.87,208.28-495.87h190.65v10.67Z"/>
    <path class="cls-2" d="M2386.17,765.9l7.89,4.64c-11.13,32.47-36.65,48.71-76.54,48.71-21.99,0-40.26-5.41-54.82-16.24-9.6-7.11-19.51-19.48-29.73-37.11-20.76,18.55-36.4,30.77-46.92,36.65-20.13,11.13-43.52,16.7-70.15,16.7-34.07,0-61.09-8.2-81.07-24.58s-29.96-38.5-29.96-66.33c0-25.67,8.19-47.16,24.58-64.48,9.28-9.58,19.95-17.24,32.01-22.96,12.06-5.72,29.53-11.52,52.42-17.4,26.9-6.8,46.77-12.52,59.61-17.16,12.83-4.64,23.58-10.21,32.24-16.7,9.89-7.11,16.7-15.46,20.41-25.05,3.71-9.58,5.57-22.88,5.57-39.89,0-36.18-6.81-62.62-20.41-79.32-6.19-7.73-14.15-13.92-23.89-18.55-9.74-4.64-19.87-6.96-30.38-6.96-12.68,0-23.97,3.25-33.86,9.74-9.9,6.49-17.32,15.47-22.27,26.9l-11.6,26.9c-6.19,14.54-17.32,21.8-33.4,21.8-10.52,0-19.33-3.48-26.44-10.44-7.12-6.96-10.67-15.69-10.67-26.21,0-15.77,11.15-29.06,33.46-39.89,12.08-5.57,27.02-10.13,44.84-13.68,17.81-3.55,35.23-5.33,52.26-5.33,19.21,0,39.18,2.48,59.94,7.42,20.75,4.95,38.1,11.29,52.04,19.02,20.13,11.44,32.67,26.29,37.63,44.53,2.48,9.28,3.72,24.9,3.72,46.85v171.63c0,29.07,1.23,48.87,3.71,59.38,5.25,21.96,17.93,32.93,38.04,32.93,9.58,0,17.08-1.7,22.5-5.1,5.41-3.4,11.83-10.21,19.25-20.41ZM2232.63,583.14c-16.65,13.92-34.99,26.14-55.03,36.65-22.5,12.06-38.07,21.19-46.71,27.37-8.63,6.19-16.49,13.61-23.58,22.27-14.5,17.94-21.74,38.81-21.74,62.62,0,20.41,5.62,37.27,16.87,50.56,11.25,13.3,25.51,19.95,42.78,19.95,15.1,0,29.36-4.71,42.77-14.15,13.41-9.43,23.5-22.03,30.29-37.8,9.55-20.71,14.34-50.71,14.34-89.99v-77.47Z"/>
    <path class="cls-2" d="M2380.61,416.61h179.98v10.21c-12.68,1.86-21.8,4.32-27.37,7.41-12.06,6.8-18.09,17.29-18.09,31.5,0,12.35,6.31,34.43,18.92,66.23l77.56,198.69,67.72-167.2c16.7-41.68,25.05-71.17,25.05-88.46,0-13.89-3.87-24.93-11.6-33.12-7.73-8.18-19.02-13.2-33.86-15.05v-10.21h132.67v10.21c-13.3,3.71-23.12,7.58-29.46,11.6-6.34,4.02-12.45,10.36-18.32,19.02-8.97,13.61-23.19,44.07-42.68,91.38l-134.52,326.56c-16.08,38.96-29.07,64.32-38.96,76.07-16.7,19.48-37.88,29.22-63.55,29.22-16.39,0-29.62-3.17-39.66-9.51-10.05-6.34-15.08-14.61-15.08-24.82,0-8.04,2.93-14.46,8.78-19.25,5.86-4.8,13.57-7.19,23.13-7.19,8.02,0,17.26,2.16,27.75,6.49,10.18,4.02,16.73,6.49,19.66,7.42s6.4,1.39,10.41,1.39c19.12,0,34.69-14.44,46.71-43.31l14.34-35.41c6.16-14.9,9.25-26.39,9.25-34.46,0-11.42-5.86-31.35-17.56-59.77l-96.14-231.2-13.87-33.35c-8.35-19.77-14.84-33.83-19.48-42.17-4.64-8.33-9.28-14.36-13.92-18.07-7.73-5.86-17.01-9.42-27.83-10.65v-10.21Z"/>
    <path class="cls-2" d="M2807.36,615.15c0-50.1,18.55-94.78,55.66-134.06,45.15-47.62,99.11-71.44,161.89-71.44s116.58,23.82,161.43,71.44c37.11,39.59,55.66,84.42,55.66,134.52s-17.63,93.55-52.88,132.2c-43.3,47.63-98.04,71.44-164.21,71.44s-121.07-23.81-164.67-71.44c-17.01-18.55-30.08-39.27-39.2-62.16-9.13-22.88-13.68-46.39-13.68-70.51ZM2891.79,609.82c0,53.75,12.06,99.3,36.18,136.67,27.21,41.71,60.46,62.55,99.73,62.55,16.7,0,32.93-4.63,48.71-13.89s29.38-22.24,40.82-38.92c12.06-17.29,21.8-38.99,29.22-65.09s11.13-51.35,11.13-75.75-3.94-50.89-11.83-76.68c-7.89-25.79-18.48-47.95-31.78-66.49-25.36-34.9-56.44-52.35-93.24-52.35s-65.1,18.38-90.45,55.13c-25.67,36.76-38.5,81.7-38.5,134.83Z"/>
    <path class="cls-2" d="M3617.28,819.25c-4.02-18.83-6.03-38.13-6.03-57.9-38.66,38.6-84.42,57.9-137.3,57.9-38.66,0-69.74-9.42-93.24-28.26-22.89-18.53-34.33-44.79-34.33-78.77v-161.23l-.46-35.22c0-21-1.24-36.28-3.71-45.86-2.48-9.57-7.12-17.76-13.92-24.56-8.97-8.34-25.05-14.52-48.24-18.53v-10.21h136.38v235.18c0,33.09,1.15,57.6,3.47,73.52,2.31,15.93,6.55,28.99,12.73,39.2,6.78,10.52,16.5,18.79,29.15,24.82,12.65,6.03,26.84,9.05,42.57,9.05,17.28,0,33.47-3.39,48.59-10.19,15.12-6.79,26.99-16.05,35.63-27.8,8.94-12.05,14.89-25.94,17.82-41.7,2.93-15.75,4.4-41.7,4.4-77.83v-90.8l-.46-34.28c0-21-1.16-36.29-3.48-45.86-2.32-9.57-7.04-17.76-14.15-24.56-8.66-8.34-24.74-14.52-48.24-18.53v-10.21h136.38v251.57c0,31.82.85,54.13,2.55,66.95,1.7,12.81,5.02,23.24,9.97,31.27,5.57,8.65,12.06,14.91,19.48,18.76,7.42,3.86,18.09,6.25,32.01,7.18v9.74l-127.56,17.16Z"/>
    <path class="cls-2" d="M3801.43,810.9v-131.27h7.42c8.64,32.17,19.43,57.83,32.39,77,23.75,34.95,51.52,52.42,83.29,52.42,19.43,0,36.25-5.87,50.44-17.63,15.42-12.99,23.14-31.38,23.14-55.2,0-19.48-5.55-36.49-16.66-51.03-6.18-7.73-13.97-14.84-23.38-21.34s-25.22-15.61-47.43-27.37c-38.88-20.71-64.79-38.04-77.74-51.95-18.51-19.79-27.77-42.68-27.77-68.65,0-27.83,9.28-51.79,27.83-71.9,21.34-22.88,49.63-34.33,84.89-34.33,15.77,0,30.46,2.78,44.07,8.35l15.77,6.96c4.94,1.86,9.28,2.78,12.99,2.78,5.87,0,11.44-4.64,16.7-13.92h9.28l5.1,105.3h-9.74c-3.39-14.84-7.02-26.74-10.87-35.72-3.86-8.97-9.33-17.63-16.42-25.98-9.56-11.75-20.66-20.95-33.3-27.6-12.64-6.65-25.13-9.97-37.46-9.97-17.27,0-32,6.26-44.18,18.79s-18.26,27.91-18.26,46.15c0,15.16,5.47,28.84,16.43,41.05,10.95,12.22,27.85,23.42,50.68,33.63l49.05,22.27c29.31,13.3,51.22,29.85,65.72,49.63,14.5,19.79,21.75,43.14,21.75,70.04,0,32.47-10.52,59.38-31.54,80.71-24.12,24.74-55.05,37.11-92.77,37.11-20.41,0-41.13-4.02-62.16-12.06-13.61-5.25-21.8-8.27-24.58-9.04-2.78-.77-6.34-1.16-10.67-1.16-10.83,0-19.02,4.64-24.58,13.92h-7.42Z"/>
  </g>
  <g>
    <path class="cls-2" d="M3821.95,299.76c6.42,14.03,10.6,19.95,14.68,24.55,25.63,28.93,67.61,29.15,84.02,28.34-6.67-5.77-16.27-15.08-25.31-28.34-7.84-11.51-8.88-16.65-22.02-45.05-14.42-31.17-20.55-40.94-28.09-50.11-1.72-2.09-12.86-15.43-25.56-20.5-8.4-3.35-17.97-4.56-17.97-4.56-1.96-.25-3.61-.37-4.75-.44,4.29,44.29,15.86,76.14,24.99,96.1Z"/>
    <path class="cls-2" d="M4026.32,299.76c-6.42,14.03-10.6,19.95-14.68,24.55-25.63,28.93-67.61,29.15-84.02,28.34,6.67-5.77,16.27-15.08,25.31-28.34,7.84-11.51,8.88-16.65,22.02-45.05,14.42-31.17,20.55-40.94,28.09-50.11,1.72-2.09,12.86-15.43,25.56-20.5,8.4-3.35,17.97-4.56,17.97-4.56,1.96-.25,3.61-.37,4.75-.44-4.29,44.29-15.86,76.14-24.99,96.1Z"/>
  </g>
</svg>
